<svg width="65" height="19" viewBox="0 0 65 19" fill="none" xmlns="http://www.w3.org/2000/svg">
<path id="Arc 2" d="M0.624345 17.9008C0.442105 18.1083 0.462557 18.4242 0.670025 18.6064C0.877494 18.7887 1.19342 18.7682 1.37566 18.5607L0.624345 17.9008ZM65 18.2308L63.7548 12.5931L59.4951 16.4903L65 18.2308ZM1.37566 18.5607C2.06869 17.7718 2.76735 17.008 3.47143 16.27L2.74787 15.5797C2.03402 16.328 1.32612 17.1019 0.624345 17.9008L1.37566 18.5607ZM7.95023 11.9874C9.55869 10.5938 11.1913 9.33137 12.8457 8.20478L12.2828 7.37822C10.5942 8.52813 8.93102 9.81452 7.29542 11.2316L7.95023 11.9874ZM18.173 5.08803C20.0598 4.16187 21.9706 3.4096 23.9025 2.83757L23.6186 1.87872C21.6298 2.46759 19.6667 3.24085 17.7324 4.19035L18.173 5.08803ZM29.9301 1.65106C30.9483 1.55068 31.9717 1.5 33 1.5V0.5C31.9388 0.5 30.8826 0.552303 29.832 0.65589L29.9301 1.65106ZM33 1.5C34.0283 1.5 35.0517 1.55068 36.0699 1.65106L36.168 0.65589C35.1174 0.552303 34.0612 0.5 33 0.5V1.5ZM42.0975 2.83757C44.0294 3.4096 45.9402 4.16187 47.827 5.08803L48.2676 4.19035C46.3333 3.24085 44.3702 2.46759 42.3814 1.87872L42.0975 2.83757ZM53.1543 8.20478C54.8087 9.33138 56.4413 10.5938 58.0498 11.9874L58.7046 11.2316C57.069 9.81452 55.4058 8.52813 53.7172 7.37822L53.1543 8.20478ZM0.624345 17.9008C0.442105 18.1083 0.462557 18.4242 0.670025 18.6064C0.877494 18.7887 1.19342 18.7682 1.37566 18.5607L0.624345 17.9008ZM65 18.2308L63.7548 12.5931L59.4951 16.4903L65 18.2308ZM1.37566 18.5607C2.06869 17.7718 2.76735 17.008 3.47143 16.27L2.74787 15.5797C2.03402 16.328 1.32612 17.1019 0.624345 17.9008L1.37566 18.5607ZM7.95023 11.9874C9.55869 10.5938 11.1913 9.33137 12.8457 8.20478L12.2828 7.37822C10.5942 8.52813 8.93102 9.81452 7.29542 11.2316L7.95023 11.9874ZM18.173 5.08803C20.0598 4.16187 21.9706 3.4096 23.9025 2.83757L23.6186 1.87872C21.6298 2.46759 19.6667 3.24085 17.7324 4.19035L18.173 5.08803ZM29.9301 1.65106C30.9483 1.55068 31.9717 1.5 33 1.5V0.5C31.9388 0.5 30.8826 0.552303 29.832 0.65589L29.9301 1.65106ZM33 1.5C34.0283 1.5 35.0517 1.55068 36.0699 1.65106L36.168 0.65589C35.1174 0.552303 34.0612 0.5 33 0.5V1.5ZM42.0975 2.83757C44.0294 3.4096 45.9402 4.16187 47.827 5.08803L48.2676 4.19035C46.3333 3.24085 44.3702 2.46759 42.3814 1.87872L42.0975 2.83757ZM53.1543 8.20478C54.8087 9.33138 56.4413 10.5938 58.0498 11.9874L58.7046 11.2316C57.069 9.81452 55.4058 8.52813 53.7172 7.37822L53.1543 8.20478Z" fill="#FAFAFA"/>
</svg>
