<svg width="50" height="51" viewBox="0 0 50 51" fill="none" xmlns="http://www.w3.org/2000/svg">
<g id="svg">
<g id="Gold">
<g id="Group 22">
<g id="Group 20">
<path id="Vector" d="M35.6019 38.1553C35.6019 38.1553 36.2136 39.0402 38.1617 40.2818C38.3075 40.3736 38.4604 40.4684 38.6215 40.5642C39.2331 40.9302 39.9518 41.3196 40.801 41.7233L41.0049 36.5243C41.0049 36.5243 43.6553 36.7281 46 35.7087C45.7299 35.5742 44.5657 34.9472 42.8918 33.6495C42.7419 33.5343 42.586 33.412 42.429 33.2845C41.6889 32.6892 40.8642 31.9726 39.9824 31.1213C38.6602 33.3641 35.6019 38.1553 35.6019 38.1553Z" fill="url(#paint0_linear_94_8624)"/>
</g>
<path id="Vector_2" d="M14.3981 37.8497C14.3981 37.8497 13.7864 38.7345 11.8383 39.9762C11.6925 40.0679 11.5396 40.1627 11.3785 40.2585C10.7669 40.6245 10.0533 41.0139 9.19903 41.4176L8.99515 36.2186C8.99515 36.2186 6.34466 36.4225 4 35.4031C4.27015 35.2685 5.43432 34.6415 7.1082 33.3438C7.25806 33.2286 7.41403 33.1063 7.57102 32.9789C8.31112 32.3835 9.13582 31.6669 10.0176 30.8157C11.3398 33.0584 14.3981 37.8497 14.3981 37.8497Z" fill="url(#paint1_linear_94_8624)"/>
<path id="Subtract" fill-rule="evenodd" clip-rule="evenodd" d="M25.3058 42.0291C34.4266 42.0291 41.8204 34.6353 41.8204 25.5146C41.8204 16.3938 34.4266 9 25.3058 9C16.1851 9 8.79128 16.3938 8.79128 25.5146C8.79128 34.6353 16.1851 42.0291 25.3058 42.0291ZM25.3058 38.0533C32.2309 38.0533 37.8447 32.4395 37.8447 25.5145C37.8447 18.5895 32.2309 12.9757 25.3058 12.9757C18.3808 12.9757 12.767 18.5895 12.767 25.5145C12.767 32.4395 18.3808 38.0533 25.3058 38.0533Z" fill="#FFE64F"/>
<g id="Mask Group">
<mask id="mask0_94_8624" style="mask-type:alpha" maskUnits="userSpaceOnUse" x="8" y="9" width="34" height="34">
<path id="Subtract_2" fill-rule="evenodd" clip-rule="evenodd" d="M25.3058 42.0291C34.4266 42.0291 41.8204 34.6353 41.8204 25.5146C41.8204 16.3938 34.4266 9 25.3058 9C16.1851 9 8.79128 16.3938 8.79128 25.5146C8.79128 34.6353 16.1851 42.0291 25.3058 42.0291ZM25.3058 38.0533C32.2309 38.0533 37.8447 32.4395 37.8447 25.5145C37.8447 18.5895 32.2309 12.9757 25.3058 12.9757C18.3808 12.9757 12.767 18.5895 12.767 25.5145C12.767 32.4395 18.3808 38.0533 25.3058 38.0533Z" fill="#6C7E92"/>
</mask>
<g mask="url(#mask0_94_8624)">
<g id="Ellipse 3" filter="url(#filter0_f_94_8624)">
<ellipse cx="18.9184" cy="13.6859" rx="5.86128" ry="11.0497" transform="rotate(42.5525 18.9184 13.6859)" fill="#FBEB93"/>
</g>
<g id="Ellipse 4" filter="url(#filter1_f_94_8624)">
<ellipse cx="35.2036" cy="13.5519" rx="3.77184" ry="10.612" transform="rotate(150 35.2036 13.5519)" fill="#F9C94D"/>
</g>
<g id="Ellipse 5" filter="url(#filter2_f_94_8624)">
<ellipse cx="34.5006" cy="36.7482" rx="3.77184" ry="7.64563" transform="rotate(-135 34.5006 36.7482)" fill="#FEDB78"/>
</g>
<g id="Ellipse 6" filter="url(#filter3_f_94_8624)">
<ellipse cx="15.3355" cy="35.321" rx="3.77184" ry="7.64563" transform="rotate(-45 15.3355 35.321)" fill="#FBE515"/>
</g>
</g>
</g>
<circle id="Ellipse 14" cx="25.3058" cy="25.5144" r="12.5388" fill="url(#paint2_linear_94_8624)"/>
<path id="Subtract_3" fill-rule="evenodd" clip-rule="evenodd" d="M25.3058 38.971C32.7375 38.971 38.7621 32.9464 38.7621 25.5147C38.7621 18.0829 32.7375 12.0583 25.3058 12.0583C17.8741 12.0583 11.8495 18.0829 11.8495 25.5147C11.8495 32.9464 17.8741 38.971 25.3058 38.971ZM25.3058 38.0536C32.2308 38.0536 37.8447 32.4398 37.8447 25.5148C37.8447 18.5898 32.2308 12.976 25.3058 12.976C18.3808 12.976 12.767 18.5898 12.767 25.5148C12.767 32.4398 18.3808 38.0536 25.3058 38.0536Z" fill="url(#paint3_linear_94_8624)"/>
<g id="Group 21">
<path id="Vector_3" d="M28.465 31.4983C28.2936 31.4982 28.1249 31.4558 27.9737 31.375L25.3966 30.0212C25.3623 30.0032 25.3242 29.9937 25.2855 29.9937C25.2468 29.9937 25.2086 30.0032 25.1744 30.0212L22.5973 31.375C22.4461 31.4558 22.2773 31.4982 22.1059 31.4983C21.9522 31.4979 21.8005 31.4639 21.6613 31.3988C21.522 31.3338 21.3986 31.2391 21.2997 31.1215C21.2007 31.004 21.1286 30.8662 21.0882 30.7179C21.0479 30.5696 21.0403 30.4143 21.0661 30.2628L21.5585 27.3942C21.5651 27.3559 21.5622 27.3165 21.5501 27.2795C21.5381 27.2426 21.5171 27.2091 21.4892 27.1821L19.4055 25.1504C19.2647 25.0129 19.1652 24.8388 19.1181 24.6477C19.071 24.4567 19.0782 24.2562 19.1389 24.069C19.1997 23.8819 19.3115 23.7154 19.4618 23.5883C19.6121 23.4613 19.7949 23.3788 19.9896 23.3501L22.8705 22.9322C22.9089 22.9264 22.9454 22.9114 22.9768 22.8885C23.0082 22.8656 23.0336 22.8355 23.0509 22.8007L24.3395 20.1899C24.4266 20.0135 24.5614 19.8649 24.7286 19.761C24.8957 19.6571 25.0886 19.6021 25.2855 19.6021C25.4823 19.6021 25.6752 19.6571 25.8424 19.761C26.0096 19.8649 26.1443 20.0135 26.2315 20.1899L27.52 22.8007C27.5373 22.8355 27.5627 22.8656 27.5942 22.8885C27.6256 22.9114 27.662 22.9264 27.7005 22.9322L30.5813 23.3501C30.776 23.3788 30.9588 23.4613 31.1091 23.5883C31.2595 23.7154 31.3713 23.8819 31.432 24.069C31.4927 24.2562 31.5 24.4567 31.4529 24.6477C31.4058 24.8388 31.3062 25.0129 31.1655 25.1504L29.0818 27.1821C29.0538 27.2091 29.0329 27.2426 29.0208 27.2795C29.0087 27.3165 29.0059 27.3559 29.0125 27.3942L29.5048 30.2628C29.5306 30.4143 29.5231 30.5696 29.4827 30.7179C29.4424 30.8662 29.3702 31.004 29.2713 31.1215C29.1723 31.2391 29.0489 31.3338 28.9097 31.3988C28.7705 31.4639 28.6187 31.4979 28.465 31.4983Z" fill="#470068"/>
<path id="Vector_4" d="M25.8662 20.371L27.1547 22.9817C27.2013 23.0757 27.27 23.1569 27.3549 23.2185C27.4397 23.2801 27.5382 23.3202 27.642 23.3355L30.5228 23.7545C30.6424 23.7718 30.7546 23.8223 30.847 23.9001C30.9393 23.978 31.008 24.0801 31.0454 24.195C31.0827 24.3098 31.0871 24.4328 31.0582 24.5501C31.0293 24.6673 30.9681 24.7742 30.8817 24.8585L28.797 26.8902C28.7219 26.9635 28.6659 27.054 28.6335 27.1538C28.6012 27.2536 28.5936 27.3597 28.6114 27.4631L29.1028 30.3328C29.1235 30.4518 29.1104 30.5743 29.065 30.6863C29.0195 30.7983 28.9436 30.8953 28.8459 30.9663C28.7481 31.0373 28.6324 31.0795 28.5118 31.0881C28.3913 31.0966 28.2707 31.0712 28.1639 31.0148L25.5919 29.661C25.499 29.6118 25.3954 29.5861 25.2902 29.5861C25.185 29.5861 25.0814 29.6118 24.9884 29.661L22.4083 31.0148C22.3015 31.0712 22.1809 31.0966 22.0604 31.0881C21.9398 31.0795 21.8241 31.0373 21.7263 30.9663C21.6286 30.8953 21.5527 30.7983 21.5072 30.6863C21.4618 30.5743 21.4487 30.4518 21.4694 30.3328L21.9608 27.4631C21.9786 27.3597 21.971 27.2536 21.9387 27.1538C21.9064 27.054 21.8503 26.9635 21.7752 26.8902L19.6905 24.8585C19.6041 24.7742 19.5429 24.6673 19.514 24.5501C19.4851 24.4328 19.4895 24.3098 19.5268 24.195C19.5642 24.0801 19.6329 23.978 19.7252 23.9001C19.8176 23.8223 19.9298 23.7718 20.0494 23.7545L22.9302 23.3355C23.034 23.3202 23.1325 23.2801 23.2173 23.2185C23.3022 23.1569 23.3709 23.0757 23.4175 22.9817L24.7061 20.371C24.7593 20.2626 24.8419 20.1713 24.9444 20.1075C25.047 20.0436 25.1653 20.0098 25.2861 20.0098C25.4069 20.0098 25.5252 20.0436 25.6278 20.1075C25.7303 20.1713 25.8129 20.2626 25.8662 20.371Z" fill="url(#paint4_linear_94_8624)"/>
</g>
<circle id="Ellipse 15" cx="25.3058" cy="25.5144" r="10.0388" stroke="url(#paint5_linear_94_8624)" stroke-width="5"/>
</g>
<path id="Vector_5" opacity="0.15" d="M38.2524 15.2694C37.4764 16.1981 36.7705 16.9153 35.9094 17.749C35.8456 17.8123 35.7818 17.8757 35.718 17.939C35.6755 17.9812 35.6436 18.0129 35.6011 18.0551C35.4417 18.2028 35.2822 18.3611 35.1121 18.5089C35.0483 18.5616 34.9952 18.6144 34.9314 18.6777C34.8889 18.7094 34.8464 18.7516 34.8145 18.7833C34.7613 18.836 34.7082 18.8783 34.655 18.9205C28.9996 23.8913 21.8135 26.9202 14.2234 27.469C14.149 27.469 14.0852 27.4795 14.0108 27.4795C13.9576 27.4795 13.9045 27.4901 13.8513 27.4901C13.7663 27.4901 13.6919 27.5006 13.6068 27.5006C13.3304 27.5112 13.0541 27.5323 12.7777 27.5323C12.6926 27.5323 12.597 27.5428 12.5119 27.5428C12.2993 27.5534 12.0867 27.5534 11.8847 27.5534C10.8961 27.5534 9.90747 27.5217 8.90821 27.4373C8.8338 26.8146 8.79128 26.1709 8.79128 25.5271C8.79128 16.3981 16.2432 9 25.4278 9C29.563 9 33.2499 10.587 36.1626 13.0777C36.9174 13.7214 37.6146 14.499 38.2524 15.2694Z" fill="url(#paint6_linear_94_8624)"/>
</g>
</g>
<defs>
<filter id="filter0_f_94_8624" x="-48.7133" y="-54.3699" width="135.263" height="136.112" filterUnits="userSpaceOnUse" color-interpolation-filters="sRGB">
<feFlood flood-opacity="0" result="BackgroundImageFix"/>
<feBlend mode="normal" in="SourceGraphic" in2="BackgroundImageFix" result="shape"/>
<feGaussianBlur stdDeviation="29.5" result="effect1_foregroundBlur_94_8624"/>
</filter>
<filter id="filter1_f_94_8624" x="-30.0281" y="-54.8318" width="130.463" height="136.767" filterUnits="userSpaceOnUse" color-interpolation-filters="sRGB">
<feFlood flood-opacity="0" result="BackgroundImageFix"/>
<feBlend mode="normal" in="SourceGraphic" in2="BackgroundImageFix" result="shape"/>
<feGaussianBlur stdDeviation="29.5" result="effect1_foregroundBlur_94_8624"/>
</filter>
<filter id="filter2_f_94_8624" x="-30.5291" y="-28.2815" width="130.059" height="130.059" filterUnits="userSpaceOnUse" color-interpolation-filters="sRGB">
<feFlood flood-opacity="0" result="BackgroundImageFix"/>
<feBlend mode="normal" in="SourceGraphic" in2="BackgroundImageFix" result="shape"/>
<feGaussianBlur stdDeviation="29.5" result="effect1_foregroundBlur_94_8624"/>
</filter>
<filter id="filter3_f_94_8624" x="-49.6942" y="-29.7087" width="130.059" height="130.059" filterUnits="userSpaceOnUse" color-interpolation-filters="sRGB">
<feFlood flood-opacity="0" result="BackgroundImageFix"/>
<feBlend mode="normal" in="SourceGraphic" in2="BackgroundImageFix" result="shape"/>
<feGaussianBlur stdDeviation="29.5" result="effect1_foregroundBlur_94_8624"/>
</filter>
<linearGradient id="paint0_linear_94_8624" x1="43.7197" y1="38.9579" x2="37.5323" y2="34.6214" gradientUnits="userSpaceOnUse">
<stop stop-color="#FC0106"/>
<stop offset="0.5559" stop-color="#E82626"/>
<stop offset="0.6787" stop-color="#B90004"/>
<stop offset="1" stop-color="#790400"/>
</linearGradient>
<linearGradient id="paint1_linear_94_8624" x1="7.56796" y1="38.1045" x2="11.6997" y2="34.6422" gradientUnits="userSpaceOnUse">
<stop stop-color="#FC0106"/>
<stop offset="0.493927" stop-color="#E82626"/>
<stop offset="0.716768" stop-color="#B90004"/>
<stop offset="1" stop-color="#790400"/>
</linearGradient>
<linearGradient id="paint2_linear_94_8624" x1="25.3058" y1="12.9756" x2="25.3058" y2="38.0533" gradientUnits="userSpaceOnUse">
<stop stop-color="#BD49D0"/>
<stop offset="0.5" stop-color="#9703B9"/>
<stop offset="1" stop-color="#852878"/>
</linearGradient>
<linearGradient id="paint3_linear_94_8624" x1="25.3058" y1="11.9171" x2="25.3058" y2="38.9574" gradientUnits="userSpaceOnUse">
<stop stop-color="#FFEE02"/>
<stop offset="0.5" stop-color="#D27003"/>
<stop offset="1" stop-color="#FBA400"/>
</linearGradient>
<linearGradient id="paint4_linear_94_8624" x1="25.2879" y1="20.1191" x2="25.2879" y2="29.7573" gradientUnits="userSpaceOnUse">
<stop offset="0.0820804" stop-color="#F7E547"/>
<stop offset="0.2263" stop-color="#FEFCAF"/>
<stop offset="0.3883" stop-color="#F8DC20"/>
<stop offset="0.5895" stop-color="#E67A0B"/>
<stop offset="1" stop-color="#F8DC20"/>
</linearGradient>
<linearGradient id="paint5_linear_94_8624" x1="25.3058" y1="12.9756" x2="25.3058" y2="38.0533" gradientUnits="userSpaceOnUse">
<stop stop-color="#AB2EBE"/>
<stop offset="1" stop-color="#340354"/>
</linearGradient>
<linearGradient id="paint6_linear_94_8624" x1="16.5759" y1="11.5459" x2="25.9051" y2="24.6041" gradientUnits="userSpaceOnUse">
<stop offset="0.5084" stop-color="white" stop-opacity="0"/>
<stop offset="1" stop-color="white"/>
</linearGradient>
</defs>
</svg>
