<svg width="50" height="51" viewBox="0 0 50 51" fill="none" xmlns="http://www.w3.org/2000/svg">
<g id="svg">
<g id="Silver">
<g id="Group 4">
<path id="Vector" d="M35.6019 38.1553C35.6019 38.1553 36.2136 39.0402 38.1617 40.2818C38.3075 40.3736 38.4604 40.4684 38.6214 40.5642C39.2331 40.9302 39.9518 41.3196 40.801 41.7233L41.0048 36.5243C41.0048 36.5243 43.6553 36.7281 46 35.7087C45.7298 35.5742 44.5657 34.9472 42.8918 33.6495C42.7419 33.5343 42.586 33.412 42.429 33.2845C41.6889 32.6892 40.8642 31.9726 39.9824 31.1213C38.6602 33.3641 35.6019 38.1553 35.6019 38.1553Z" fill="url(#paint0_linear_94_8653)"/>
</g>
<g id="Group 3">
<path id="Vector_2" d="M14.3981 37.8497C14.3981 37.8497 13.7864 38.7345 11.8383 39.9762C11.6925 40.0679 11.5396 40.1627 11.3785 40.2585C10.7669 40.6245 10.0533 41.0139 9.19903 41.4176L8.99515 36.2186C8.99515 36.2186 6.34466 36.4225 4 35.4031C4.27015 35.2685 5.43432 34.6415 7.1082 33.3438C7.25806 33.2286 7.41403 33.1063 7.57102 32.9789C8.31112 32.3835 9.13582 31.6669 10.0176 30.8157C11.3398 33.0584 14.3981 37.8497 14.3981 37.8497Z" fill="url(#paint1_linear_94_8653)"/>
<path id="Vector_3" d="M11.8383 39.9763C11.6925 40.068 11.5396 40.1628 11.3786 40.2587C11.0146 39.0772 9.56399 36.4675 8.99516 35.709C8.59484 35.1648 8.15168 34.6535 7.66991 34.1799C7.48132 33.9913 7.25399 33.609 7.10822 33.344C7.25807 33.2288 7.41404 33.1064 7.57103 32.979C7.75656 33.2726 8.03792 33.712 8.28462 34.0779C8.69239 34.6896 11.2409 37.9517 11.5468 38.5634C11.7476 38.9691 11.8149 39.5981 11.8383 39.9763Z" fill="#9925E8"/>
</g>
<path id="Subtract" fill-rule="evenodd" clip-rule="evenodd" d="M25 42.0291C34.1207 42.0291 41.5145 34.6353 41.5145 25.5146C41.5145 16.3938 34.1207 9 25 9C15.8792 9 8.48541 16.3938 8.48541 25.5146C8.48541 34.6353 15.8792 42.0291 25 42.0291ZM25 38.0533C31.925 38.0533 37.5388 32.4395 37.5388 25.5145C37.5388 18.5895 31.925 12.9757 25 12.9757C18.075 12.9757 12.4612 18.5895 12.4612 25.5145C12.4612 32.4395 18.075 38.0533 25 38.0533Z" fill="white"/>
<g id="Mask Group">
<mask id="mask0_94_8653" style="mask-type:alpha" maskUnits="userSpaceOnUse" x="8" y="9" width="34" height="34">
<path id="Subtract_2" fill-rule="evenodd" clip-rule="evenodd" d="M25 42.0291C34.1207 42.0291 41.5145 34.6353 41.5145 25.5146C41.5145 16.3938 34.1207 9 25 9C15.8792 9 8.48541 16.3938 8.48541 25.5146C8.48541 34.6353 15.8792 42.0291 25 42.0291ZM25 38.0533C31.925 38.0533 37.5388 32.4395 37.5388 25.5145C37.5388 18.5895 31.925 12.9757 25 12.9757C18.075 12.9757 12.4612 18.5895 12.4612 25.5145C12.4612 32.4395 18.075 38.0533 25 38.0533Z" fill="#6C7E92"/>
</mask>
<g mask="url(#mask0_94_8653)">
<g id="Ellipse 3" filter="url(#filter0_f_94_8653)">
<ellipse cx="14.9053" cy="14.6344" rx="3.77184" ry="7.64563" transform="rotate(42.5525 14.9053 14.6344)" fill="#F0F2F7"/>
</g>
<g id="Ellipse 4" filter="url(#filter1_f_94_8653)">
<ellipse cx="35.6573" cy="14.6345" rx="3.77184" ry="7.64563" transform="rotate(150 35.6573 14.6345)" fill="#F0F2F7"/>
</g>
<g id="Ellipse 5" filter="url(#filter2_f_94_8653)">
<ellipse cx="34.1947" cy="36.7482" rx="3.77184" ry="7.64563" transform="rotate(-135 34.1947 36.7482)" fill="#F0F2F7"/>
</g>
<g id="Ellipse 6" filter="url(#filter3_f_94_8653)">
<ellipse cx="15.0297" cy="35.321" rx="3.77184" ry="7.64563" transform="rotate(-45 15.0297 35.321)" fill="#889BAF"/>
</g>
</g>
</g>
<circle id="Ellipse 7" cx="25" cy="25.5144" r="12.5388" fill="url(#paint2_linear_94_8653)"/>
<circle id="Ellipse 8" cx="25" cy="25.5144" r="10.0388" stroke="url(#paint3_linear_94_8653)" stroke-width="5"/>
<path id="Subtract_3" fill-rule="evenodd" clip-rule="evenodd" d="M25 38.971C32.4317 38.971 38.4563 32.9464 38.4563 25.5147C38.4563 18.0829 32.4317 12.0583 25 12.0583C17.5682 12.0583 11.5436 18.0829 11.5436 25.5147C11.5436 32.9464 17.5682 38.971 25 38.971ZM25 38.0536C31.925 38.0536 37.5388 32.4398 37.5388 25.5148C37.5388 18.5898 31.925 12.976 25 12.976C18.075 12.976 12.4612 18.5898 12.4612 25.5148C12.4612 32.4398 18.075 38.0536 25 38.0536Z" fill="url(#paint4_linear_94_8653)"/>
<path id="Vector_4" d="M28.1592 31.4983C27.9877 31.4982 27.819 31.4558 27.6678 31.375L25.0907 30.0212C25.0564 30.0032 25.0183 29.9937 24.9796 29.9937C24.9409 29.9937 24.9027 30.0032 24.8685 30.0212L22.2914 31.375C22.1402 31.4558 21.9714 31.4982 21.8 31.4983C21.6463 31.4979 21.4946 31.4639 21.3554 31.3988C21.2161 31.3338 21.0928 31.2391 20.9938 31.1215C20.8948 31.004 20.8227 30.8662 20.7823 30.7179C20.742 30.5696 20.7345 30.4143 20.7602 30.2628L21.2526 27.3942C21.2592 27.3559 21.2563 27.3165 21.2442 27.2795C21.2322 27.2426 21.2112 27.2091 21.1833 27.1821L19.0996 25.1504C18.9588 25.0129 18.8593 24.8388 18.8122 24.6477C18.7651 24.4567 18.7723 24.2562 18.833 24.069C18.8938 23.8819 19.0056 23.7154 19.1559 23.5883C19.3062 23.4613 19.489 23.3788 19.6837 23.3501L22.5646 22.9322C22.603 22.9264 22.6395 22.9114 22.6709 22.8885C22.7023 22.8656 22.7277 22.8355 22.745 22.8007L24.0336 20.1899C24.1207 20.0135 24.2555 19.8649 24.4227 19.761C24.5899 19.6571 24.7828 19.6021 24.9796 19.6021C25.1764 19.6021 25.3693 19.6571 25.5365 19.761C25.7037 19.8649 25.8385 20.0135 25.9256 20.1899L27.2142 22.8007C27.2314 22.8355 27.2569 22.8656 27.2883 22.8885C27.3197 22.9114 27.3562 22.9264 27.3946 22.9322L30.2755 23.3501C30.4702 23.3788 30.653 23.4613 30.8033 23.5883C30.9536 23.7154 31.0654 23.8819 31.1261 24.069C31.1869 24.2562 31.1941 24.4567 31.147 24.6477C31.0999 24.8388 31.0004 25.0129 30.8596 25.1504L28.7759 27.1821C28.7479 27.2091 28.727 27.2426 28.7149 27.2795C28.7028 27.3165 28.7 27.3559 28.7066 27.3942L29.199 30.2628C29.2247 30.4143 29.2172 30.5696 29.1768 30.7179C29.1365 30.8662 29.0643 31.004 28.9654 31.1215C28.8664 31.2391 28.743 31.3338 28.6038 31.3988C28.4646 31.4639 28.3128 31.4979 28.1592 31.4983Z" fill="#053A4C"/>
<path id="Vector_5" d="M25.5603 20.371L26.8489 22.9817C26.8955 23.0757 26.9642 23.1569 27.049 23.2185C27.1339 23.2801 27.2324 23.3202 27.3362 23.3355L30.217 23.7545C30.3365 23.7718 30.4488 23.8223 30.5412 23.9001C30.6335 23.978 30.7022 24.0801 30.7395 24.195C30.7769 24.3098 30.7813 24.4328 30.7524 24.5501C30.7235 24.6673 30.6623 24.7742 30.5759 24.8585L28.4912 26.8902C28.4161 26.9635 28.36 27.054 28.3277 27.1538C28.2954 27.2536 28.2878 27.3597 28.3056 27.4631L28.797 30.3328C28.8177 30.4518 28.8046 30.5743 28.7591 30.6863C28.7137 30.7983 28.6378 30.8953 28.54 30.9663C28.4423 31.0373 28.3265 31.0795 28.206 31.0881C28.0855 31.0966 27.9649 31.0712 27.8581 31.0148L25.2861 29.661C25.1931 29.6118 25.0895 29.5861 24.9844 29.5861C24.8792 29.5861 24.7756 29.6118 24.6826 29.661L22.1025 31.0148C21.9956 31.0712 21.8751 31.0966 21.7546 31.0881C21.634 31.0795 21.5183 31.0373 21.4205 30.9663C21.3227 30.8953 21.2468 30.7983 21.2014 30.6863C21.156 30.5743 21.1429 30.4518 21.1636 30.3328L21.6549 27.4631C21.6728 27.3597 21.6652 27.2536 21.6329 27.1538C21.6005 27.054 21.5444 26.9635 21.4694 26.8902L19.3847 24.8585C19.2982 24.7742 19.2371 24.6673 19.2082 24.5501C19.1792 24.4328 19.1837 24.3098 19.221 24.195C19.2584 24.0801 19.3271 23.978 19.4194 23.9001C19.5118 23.8223 19.624 23.7718 19.7435 23.7545L22.6244 23.3355C22.7282 23.3202 22.8267 23.2801 22.9115 23.2185C22.9964 23.1569 23.0651 23.0757 23.1117 22.9817L24.4002 20.371C24.4535 20.2626 24.5361 20.1713 24.6386 20.1075C24.7411 20.0436 24.8595 20.0098 24.9803 20.0098C25.1011 20.0098 25.2194 20.0436 25.322 20.1075C25.4245 20.1713 25.5071 20.2626 25.5603 20.371Z" fill="url(#paint5_linear_94_8653)"/>
<path id="Vector_6" opacity="0.15" d="M37.9466 15.2694C37.1706 16.1981 36.4646 16.9153 35.6035 17.749C35.5397 17.8123 35.476 17.8757 35.4122 17.939C35.3697 17.9812 35.3378 18.0129 35.2952 18.0551C35.1358 18.2028 34.9763 18.3611 34.8062 18.5089C34.7425 18.5616 34.6893 18.6144 34.6255 18.6777C34.583 18.7094 34.5405 18.7516 34.5086 18.7833C34.4554 18.836 34.4023 18.8783 34.3491 18.9205C28.6938 23.8913 21.5076 26.9202 13.9175 27.469C13.8431 27.469 13.7793 27.4795 13.7049 27.4795C13.6518 27.4795 13.5986 27.4901 13.5455 27.4901C13.4604 27.4901 13.386 27.5006 13.301 27.5006C13.0246 27.5112 12.7482 27.5323 12.4718 27.5323C12.3868 27.5323 12.2911 27.5428 12.206 27.5428C11.9934 27.5534 11.7808 27.5534 11.5789 27.5534C10.5902 27.5534 9.6016 27.5217 8.60235 27.4373C8.52793 26.8146 8.48541 26.1709 8.48541 25.5271C8.48541 16.3981 15.9373 9 25.122 9C29.2572 9 32.944 10.587 35.8568 13.0777C36.6115 13.7214 37.3088 14.499 37.9466 15.2694Z" fill="url(#paint6_linear_94_8653)"/>
</g>
</g>
<defs>
<filter id="filter0_f_94_8653" x="-49.9656" y="-50.55" width="129.742" height="130.369" filterUnits="userSpaceOnUse" color-interpolation-filters="sRGB">
<feFlood flood-opacity="0" result="BackgroundImageFix"/>
<feBlend mode="normal" in="SourceGraphic" in2="BackgroundImageFix" result="shape"/>
<feGaussianBlur stdDeviation="29.5" result="effect1_foregroundBlur_94_8653"/>
</filter>
<filter id="filter1_f_94_8653" x="-28.3712" y="-51.252" width="128.057" height="131.773" filterUnits="userSpaceOnUse" color-interpolation-filters="sRGB">
<feFlood flood-opacity="0" result="BackgroundImageFix"/>
<feBlend mode="normal" in="SourceGraphic" in2="BackgroundImageFix" result="shape"/>
<feGaussianBlur stdDeviation="29.5" result="effect1_foregroundBlur_94_8653"/>
</filter>
<filter id="filter2_f_94_8653" x="-30.835" y="-28.2815" width="130.059" height="130.059" filterUnits="userSpaceOnUse" color-interpolation-filters="sRGB">
<feFlood flood-opacity="0" result="BackgroundImageFix"/>
<feBlend mode="normal" in="SourceGraphic" in2="BackgroundImageFix" result="shape"/>
<feGaussianBlur stdDeviation="29.5" result="effect1_foregroundBlur_94_8653"/>
</filter>
<filter id="filter3_f_94_8653" x="-50.0001" y="-29.7087" width="130.059" height="130.059" filterUnits="userSpaceOnUse" color-interpolation-filters="sRGB">
<feFlood flood-opacity="0" result="BackgroundImageFix"/>
<feBlend mode="normal" in="SourceGraphic" in2="BackgroundImageFix" result="shape"/>
<feGaussianBlur stdDeviation="29.5" result="effect1_foregroundBlur_94_8653"/>
</filter>
<linearGradient id="paint0_linear_94_8653" x1="42.9927" y1="38.665" x2="37.6917" y2="35.3519" gradientUnits="userSpaceOnUse">
<stop offset="0.01" stop-color="#9D00FF"/>
<stop offset="0.41" stop-color="#7B00DB"/>
<stop offset="0.53" stop-color="#9825E4"/>
<stop offset="0.62" stop-color="#6800B5"/>
<stop offset="1" stop-color="#400071"/>
</linearGradient>
<linearGradient id="paint1_linear_94_8653" x1="6.28044" y1="38.6601" x2="12.4714" y2="34.3245" gradientUnits="userSpaceOnUse">
<stop offset="0.01" stop-color="#9D00FF"/>
<stop offset="0.41" stop-color="#7B00DB"/>
<stop offset="0.53" stop-color="#9825E4"/>
<stop offset="0.62" stop-color="#6800B5"/>
<stop offset="1" stop-color="#400071"/>
</linearGradient>
<linearGradient id="paint2_linear_94_8653" x1="25" y1="12.9756" x2="25" y2="38.0533" gradientUnits="userSpaceOnUse">
<stop stop-color="#2A99A4"/>
<stop offset="0.484375" stop-color="#10667B"/>
<stop offset="1" stop-color="#184A61"/>
</linearGradient>
<linearGradient id="paint3_linear_94_8653" x1="25" y1="12.9756" x2="25" y2="38.0533" gradientUnits="userSpaceOnUse">
<stop stop-color="#3F879B"/>
<stop offset="1" stop-color="#062C3C"/>
</linearGradient>
<linearGradient id="paint4_linear_94_8653" x1="25" y1="12.0583" x2="25" y2="38.971" gradientUnits="userSpaceOnUse">
<stop stop-color="#3C4E56"/>
<stop offset="1" stop-color="#ADBED2"/>
</linearGradient>
<linearGradient id="paint5_linear_94_8653" x1="24.9803" y1="20.1172" x2="24.9803" y2="29.7609" gradientUnits="userSpaceOnUse">
<stop offset="0.08" stop-color="#C8D0E5"/>
<stop offset="0.23" stop-color="#FAFAFA"/>
<stop offset="0.39" stop-color="#C8D1E2"/>
<stop offset="0.59" stop-color="#566B7C"/>
<stop offset="1" stop-color="#A9B8CF"/>
</linearGradient>
<linearGradient id="paint6_linear_94_8653" x1="16.27" y1="11.5459" x2="25.5992" y2="24.6041" gradientUnits="userSpaceOnUse">
<stop offset="0.5084" stop-color="white" stop-opacity="0"/>
<stop offset="1" stop-color="white"/>
</linearGradient>
</defs>
</svg>
