<svg width="56" height="56" viewBox="0 0 56 56" fill="none" xmlns="http://www.w3.org/2000/svg">
<g clip-path="url(#clip0_449_1450)">
<path d="M28.0001 53.6666C27.6571 53.6666 27.3304 53.5149 27.1064 53.2513L0.27308 21.3803C-0.0372538 21.0116 -0.0885871 20.4889 0.142413 20.0689L9.55041 2.93992C9.75575 2.56659 10.1477 2.33325 10.5724 2.33325H45.4277C45.8547 2.33325 46.2467 2.56659 46.4497 2.93992L55.8554 20.0689C56.0887 20.4913 56.0351 21.0116 55.7247 21.3803L28.8914 53.2513C28.6697 53.5149 28.3431 53.6666 28.0001 53.6666ZM2.57608 20.4889L28.0001 50.6893L53.4241 20.4889L44.7371 4.66659H11.2631L2.57608 20.4889Z" fill="black"/>
<path d="M54.2497 22.1666H1.74967C1.10567 22.1666 0.583008 21.6439 0.583008 20.9999C0.583008 20.3559 1.10567 19.8333 1.74967 19.8333H54.2497C54.8937 19.8333 55.4163 20.3559 55.4163 20.9999C55.4163 21.6439 54.8937 22.1666 54.2497 22.1666Z" fill="black"/>
<path d="M39.8118 21.5109C39.4455 21.5109 39.0838 21.3383 38.8575 21.0139L28.0051 5.53692L17.2905 20.9323C16.9265 21.4619 16.1961 21.5903 15.6688 21.2239C15.1368 20.8553 15.0085 20.1296 15.3771 19.5999L27.0438 2.83259C27.2608 2.51992 27.6178 2.33325 27.9981 2.33325H28.0005C28.3808 2.33325 28.7355 2.51759 28.9548 2.83025L40.7661 19.6746C41.1371 20.2043 41.0088 20.9299 40.4815 21.2986C40.2808 21.4409 40.0451 21.5109 39.8118 21.5109Z" fill="black"/>
<path d="M28 53.6666C27.5054 53.6666 27.0667 53.3563 26.901 52.8919L9.47338 3.89192C9.25872 3.28292 9.57605 2.61558 10.1804 2.40092C10.7917 2.17692 11.4567 2.50125 11.6714 3.10792L28 49.0186L44.3287 3.10792C44.5434 2.50358 45.2084 2.18158 45.8197 2.40092C46.4264 2.61558 46.7437 3.28292 46.5267 3.89192L29.099 52.8919C28.9334 53.3563 28.4947 53.6666 28 53.6666Z" fill="black"/>
</g>
<defs>
<clipPath id="clip0_449_1450">
<rect width="56" height="56" fill="white"/>
</clipPath>
</defs>
</svg>
