<svg width="65" height="19" viewBox="0 0 65 19" fill="none" xmlns="http://www.w3.org/2000/svg">
<path id="Arc 2" d="M0.624345 1.09921C0.442105 0.891735 0.462557 0.575815 0.670025 0.393576C0.877494 0.211334 1.19342 0.231787 1.37566 0.439255L0.624345 1.09921ZM65 0.76923L63.7548 6.40686L59.4951 2.50969L65 0.76923ZM1.37566 0.439255C2.06869 1.22823 2.76735 1.99197 3.47143 2.73002L2.74787 3.42028C2.03402 2.67199 1.32612 1.89813 0.624345 1.09921L1.37566 0.439255ZM7.95023 7.01263C9.55869 8.40618 11.1913 9.66863 12.8457 10.7952L12.2828 11.6218C10.5942 10.4719 8.93102 9.18548 7.29542 7.76842L7.95023 7.01263ZM18.173 13.912C20.0598 14.8381 21.9706 15.5904 23.9025 16.1624L23.6186 17.1213C21.6298 16.5324 19.6667 15.7592 17.7324 14.8097L18.173 13.912ZM29.9301 17.3489C30.9483 17.4493 31.9717 17.5 33 17.5V18.5C31.9388 18.5 30.8826 18.4477 29.832 18.3441L29.9301 17.3489ZM33 17.5C34.0283 17.5 35.0517 17.4493 36.0699 17.3489L36.168 18.3441C35.1174 18.4477 34.0612 18.5 33 18.5V17.5ZM42.0975 16.1624C44.0294 15.5904 45.9402 14.8381 47.827 13.912L48.2676 14.8097C46.3333 15.7592 44.3702 16.5324 42.3814 17.1213L42.0975 16.1624ZM53.1543 10.7952C54.8087 9.66862 56.4413 8.40618 58.0498 7.01262L58.7046 7.76842C57.069 9.18548 55.4058 10.4719 53.7172 11.6218L53.1543 10.7952ZM0.624345 1.09921C0.442105 0.891735 0.462557 0.575815 0.670025 0.393576C0.877494 0.211334 1.19342 0.231787 1.37566 0.439255L0.624345 1.09921ZM65 0.76923L63.7548 6.40686L59.4951 2.50969L65 0.76923ZM1.37566 0.439255C2.06869 1.22823 2.76735 1.99197 3.47143 2.73002L2.74787 3.42028C2.03402 2.67199 1.32612 1.89813 0.624345 1.09921L1.37566 0.439255ZM7.95023 7.01263C9.55869 8.40618 11.1913 9.66863 12.8457 10.7952L12.2828 11.6218C10.5942 10.4719 8.93102 9.18548 7.29542 7.76842L7.95023 7.01263ZM18.173 13.912C20.0598 14.8381 21.9706 15.5904 23.9025 16.1624L23.6186 17.1213C21.6298 16.5324 19.6667 15.7592 17.7324 14.8097L18.173 13.912ZM29.9301 17.3489C30.9483 17.4493 31.9717 17.5 33 17.5V18.5C31.9388 18.5 30.8826 18.4477 29.832 18.3441L29.9301 17.3489ZM33 17.5C34.0283 17.5 35.0517 17.4493 36.0699 17.3489L36.168 18.3441C35.1174 18.4477 34.0612 18.5 33 18.5V17.5ZM42.0975 16.1624C44.0294 15.5904 45.9402 14.8381 47.827 13.912L48.2676 14.8097C46.3333 15.7592 44.3702 16.5324 42.3814 17.1213L42.0975 16.1624ZM53.1543 10.7952C54.8087 9.66862 56.4413 8.40618 58.0498 7.01262L58.7046 7.76842C57.069 9.18548 55.4058 10.4719 53.7172 11.6218L53.1543 10.7952Z" fill="#FAFAFA"/>
</svg>
