<svg width="500" height="24" viewBox="0 0 500 24" fill="none" xmlns="http://www.w3.org/2000/svg">
<rect opacity="0.1" y="11" width="238" height="2" fill="url(#paint0_linear_335_299)"/>
<g opacity="0.1" clip-path="url(#clip0_335_299)">
<path d="M248.673 0.549316C249.405 -0.183105 250.595 -0.183105 251.327 0.549316L261.452 10.6734C262.183 11.4046 262.183 12.5953 261.452 13.3265L251.327 23.4515C250.595 24.1828 249.405 24.1828 248.673 23.4515L238.549 13.3265C237.817 12.5953 237.817 11.4046 238.549 10.6734L248.673 0.549316ZM250 2.4051L240.405 11.9999L250 21.5953L259.595 11.9999L250 2.4051Z" fill="url(#paint1_linear_335_299)"/>
</g>
<rect opacity="0.1" x="262" y="11" width="238" height="2" fill="url(#paint2_linear_335_299)"/>
<defs>
<linearGradient id="paint0_linear_335_299" x1="119" y1="11" x2="119" y2="13" gradientUnits="userSpaceOnUse">
<stop stop-color="#071437"/>
<stop offset="1" stop-color="#1A1949"/>
</linearGradient>
<linearGradient id="paint1_linear_335_299" x1="250" y1="0" x2="250" y2="23.9999" gradientUnits="userSpaceOnUse">
<stop stop-color="#071437"/>
<stop offset="1" stop-color="#1A1949"/>
</linearGradient>
<linearGradient id="paint2_linear_335_299" x1="381" y1="11" x2="381" y2="13" gradientUnits="userSpaceOnUse">
<stop stop-color="#071437"/>
<stop offset="1" stop-color="#1A1949"/>
</linearGradient>
<clipPath id="clip0_335_299">
<rect width="24" height="24" fill="white" transform="translate(238)"/>
</clipPath>
</defs>
</svg>
