<svg width="860" height="164" viewBox="0 0 860 164" fill="none" xmlns="http://www.w3.org/2000/svg">
<path d="M196.859 53H187.578L177.479 36.7578L174.025 39.2363V53H165.852V14.4512H174.025V32.0908C174.57 31.335 175.106 30.5791 175.634 29.8232C176.161 29.0674 176.697 28.3115 177.242 27.5557L187.684 14.4512H196.754L183.307 31.5107L196.859 53ZM209.12 11.9727V20.3311C209.12 21.79 209.067 23.1787 208.962 24.4971C208.874 25.8154 208.804 26.7471 208.751 27.292H209.173C209.806 26.2725 210.553 25.4463 211.414 24.8135C212.293 24.1807 213.26 23.7148 214.314 23.416C215.369 23.1172 216.503 22.9678 217.716 22.9678C219.843 22.9678 221.697 23.3457 223.279 24.1016C224.861 24.8398 226.092 26.0088 226.971 27.6084C227.85 29.1904 228.289 31.2471 228.289 33.7783V53H220.247V35.7822C220.247 33.6729 219.86 32.082 219.087 31.0098C218.313 29.9375 217.118 29.4014 215.501 29.4014C213.884 29.4014 212.609 29.7793 211.678 30.5352C210.746 31.2734 210.087 32.3721 209.7 33.8311C209.313 35.2725 209.12 37.0391 209.12 39.1309V53H201.078V11.9727H209.12ZM248.645 22.915C252.6 22.915 255.632 23.7764 257.741 25.499C259.851 27.2217 260.905 29.8408 260.905 33.3564V53H255.289L253.733 48.9922H253.522C252.679 50.0469 251.817 50.9082 250.938 51.5762C250.06 52.2441 249.049 52.7363 247.906 53.0527C246.764 53.3691 245.375 53.5273 243.74 53.5273C242 53.5273 240.436 53.1934 239.047 52.5254C237.676 51.8574 236.595 50.8379 235.804 49.4668C235.013 48.0781 234.617 46.3203 234.617 44.1934C234.617 41.0645 235.716 38.7617 237.913 37.2852C240.11 35.791 243.406 34.9648 247.801 34.8066L252.916 34.6484V33.3564C252.916 31.8096 252.512 30.6758 251.703 29.9551C250.895 29.2344 249.77 28.874 248.328 28.874C246.904 28.874 245.507 29.0762 244.136 29.4805C242.765 29.8848 241.394 30.3945 240.022 31.0098L237.359 25.5781C238.924 24.752 240.673 24.1016 242.606 23.627C244.558 23.1523 246.57 22.915 248.645 22.915ZM252.916 39.3418L249.805 39.4473C247.203 39.5176 245.393 39.9834 244.373 40.8447C243.371 41.7061 242.87 42.8398 242.87 44.2461C242.87 45.4766 243.23 46.3555 243.951 46.8828C244.672 47.3926 245.612 47.6475 246.772 47.6475C248.495 47.6475 249.945 47.1377 251.123 46.1182C252.318 45.0986 252.916 43.6484 252.916 41.7676V39.3418ZM259.007 11.6299V12.1836C258.497 12.6758 257.829 13.2822 257.003 14.0029C256.177 14.7236 255.289 15.4795 254.34 16.2705C253.391 17.0439 252.459 17.791 251.545 18.5117C250.631 19.2148 249.831 19.8037 249.146 20.2783H243.793V19.5664C244.373 18.8984 245.041 18.1074 245.797 17.1934C246.57 16.2617 247.335 15.3037 248.091 14.3193C248.847 13.335 249.479 12.4385 249.989 11.6299H259.007ZM303.831 22.9678C307.171 22.9678 309.693 23.8291 311.398 25.5518C313.121 27.2568 313.982 29.999 313.982 33.7783V53H305.914V35.7822C305.914 33.6729 305.554 32.082 304.833 31.0098C304.112 29.9375 302.996 29.4014 301.484 29.4014C299.357 29.4014 297.846 30.166 296.949 31.6953C296.053 33.207 295.604 35.3779 295.604 38.208V53H287.562V35.7822C287.562 34.376 287.404 33.1982 287.088 32.249C286.771 31.2998 286.288 30.5879 285.638 30.1133C284.987 29.6387 284.152 29.4014 283.133 29.4014C281.639 29.4014 280.461 29.7793 279.6 30.5352C278.756 31.2734 278.149 32.3721 277.78 33.8311C277.429 35.2725 277.253 37.0391 277.253 39.1309V53H269.211V23.5215H275.354L276.436 27.292H276.884C277.481 26.2725 278.229 25.4463 279.125 24.8135C280.039 24.1807 281.041 23.7148 282.131 23.416C283.221 23.1172 284.328 22.9678 285.453 22.9678C287.615 22.9678 289.443 23.3193 290.938 24.0225C292.449 24.7256 293.609 25.8154 294.418 27.292H295.13C296.009 25.7803 297.248 24.6816 298.848 23.9961C300.465 23.3105 302.126 22.9678 303.831 22.9678ZM349.235 14.4512C354.21 14.4512 357.84 15.5234 360.125 17.668C362.41 19.7949 363.553 22.7305 363.553 26.4746C363.553 28.1621 363.298 29.7793 362.788 31.3262C362.278 32.8555 361.443 34.2178 360.283 35.4131C359.141 36.6084 357.611 37.5576 355.695 38.2607C353.779 38.9463 351.415 39.2891 348.603 39.2891H345.096V53H336.922V14.4512H349.235ZM348.813 21.1484H345.096V32.5918H347.785C349.314 32.5918 350.642 32.3896 351.767 31.9854C352.892 31.5811 353.762 30.9482 354.377 30.0869C354.992 29.2256 355.3 28.1182 355.3 26.7646C355.3 24.8662 354.772 23.46 353.718 22.5459C352.663 21.6143 351.028 21.1484 348.813 21.1484ZM378.239 11.9727V20.3311C378.239 21.79 378.187 23.1787 378.081 24.4971C377.993 25.8154 377.923 26.7471 377.87 27.292H378.292C378.925 26.2725 379.672 25.4463 380.533 24.8135C381.412 24.1807 382.379 23.7148 383.434 23.416C384.488 23.1172 385.622 22.9678 386.835 22.9678C388.962 22.9678 390.816 23.3457 392.398 24.1016C393.98 24.8398 395.211 26.0088 396.09 27.6084C396.969 29.1904 397.408 31.2471 397.408 33.7783V53H389.366V35.7822C389.366 33.6729 388.979 32.082 388.206 31.0098C387.433 29.9375 386.237 29.4014 384.62 29.4014C383.003 29.4014 381.729 29.7793 380.797 30.5352C379.865 31.2734 379.206 32.3721 378.819 33.8311C378.433 35.2725 378.239 37.0391 378.239 39.1309V53H370.197V11.9727H378.239ZM417.764 22.915C421.719 22.915 424.751 23.7764 426.86 25.499C428.97 27.2217 430.024 29.8408 430.024 33.3564V53H424.408L422.853 48.9922H422.642C421.798 50.0469 420.937 50.9082 420.058 51.5762C419.179 52.2441 418.168 52.7363 417.025 53.0527C415.883 53.3691 414.494 53.5273 412.859 53.5273C411.119 53.5273 409.555 53.1934 408.166 52.5254C406.795 51.8574 405.714 50.8379 404.923 49.4668C404.132 48.0781 403.736 46.3203 403.736 44.1934C403.736 41.0645 404.835 38.7617 407.032 37.2852C409.229 35.791 412.525 34.9648 416.92 34.8066L422.035 34.6484V33.3564C422.035 31.8096 421.631 30.6758 420.822 29.9551C420.014 29.2344 418.889 28.874 417.447 28.874C416.023 28.874 414.626 29.0762 413.255 29.4805C411.884 29.8848 410.513 30.3945 409.142 31.0098L406.479 25.5781C408.043 24.752 409.792 24.1016 411.726 23.627C413.677 23.1523 415.689 22.915 417.764 22.915ZM422.035 39.3418L418.924 39.4473C416.322 39.5176 414.512 39.9834 413.492 40.8447C412.49 41.7061 411.989 42.8398 411.989 44.2461C411.989 45.4766 412.35 46.3555 413.07 46.8828C413.791 47.3926 414.731 47.6475 415.892 47.6475C417.614 47.6475 419.064 47.1377 420.242 46.1182C421.438 45.0986 422.035 43.6484 422.035 41.7676V39.3418ZM428.126 11.6299V12.1836C427.616 12.6758 426.948 13.2822 426.122 14.0029C425.296 14.7236 424.408 15.4795 423.459 16.2705C422.51 17.0439 421.578 17.791 420.664 18.5117C419.75 19.2148 418.95 19.8037 418.265 20.2783H412.912V19.5664C413.492 18.8984 414.16 18.1074 414.916 17.1934C415.689 16.2617 416.454 15.3037 417.21 14.3193C417.966 13.335 418.599 12.4385 419.108 11.6299H428.126ZM483.233 14.4512L470.129 53H461.217L448.139 14.4512H456.392L463.643 37.3906C463.766 37.7773 463.968 38.5068 464.249 39.5791C464.53 40.6338 464.812 41.7588 465.093 42.9541C465.392 44.1318 465.594 45.1074 465.699 45.8809C465.805 45.1074 465.989 44.1318 466.253 42.9541C466.534 41.7764 466.807 40.6602 467.07 39.6055C467.352 38.5332 467.554 37.7949 467.677 37.3906L474.98 14.4512H483.233ZM495.521 23.5215V53H487.479V23.5215H495.521ZM491.513 11.9727C492.708 11.9727 493.736 12.2539 494.598 12.8164C495.459 13.3613 495.89 14.3896 495.89 15.9014C495.89 17.3955 495.459 18.4326 494.598 19.0127C493.736 19.5752 492.708 19.8564 491.513 19.8564C490.3 19.8564 489.263 19.5752 488.401 19.0127C487.558 18.4326 487.136 17.3955 487.136 15.9014C487.136 14.3896 487.558 13.3613 488.401 12.8164C489.263 12.2539 490.3 11.9727 491.513 11.9727ZM516.14 22.9678C518.864 22.9678 521.211 23.4951 523.18 24.5498C525.148 25.5869 526.669 27.0986 527.741 29.085C528.813 31.0713 529.35 33.4971 529.35 36.3623V40.2646H510.339C510.427 42.5322 511.104 44.3164 512.369 45.6172C513.652 46.9004 515.428 47.542 517.695 47.542C519.576 47.542 521.299 47.3486 522.863 46.9619C524.428 46.5752 526.036 45.9951 527.688 45.2217V51.4443C526.229 52.165 524.7 52.6924 523.101 53.0264C521.519 53.3604 519.594 53.5273 517.326 53.5273C514.373 53.5273 511.754 52.9824 509.469 51.8926C507.201 50.8027 505.417 49.1416 504.116 46.9092C502.833 44.6768 502.191 41.8643 502.191 38.4717C502.191 35.0264 502.771 32.1611 503.932 29.876C505.109 27.5732 506.744 25.8506 508.836 24.708C510.928 23.5479 513.362 22.9678 516.14 22.9678ZM516.192 28.6895C514.628 28.6895 513.327 29.1904 512.29 30.1924C511.271 31.1943 510.682 32.7676 510.523 34.9121H521.809C521.791 33.7168 521.571 32.6533 521.149 31.7217C520.745 30.79 520.13 30.0518 519.304 29.5068C518.495 28.9619 517.458 28.6895 516.192 28.6895ZM520.49 11.6299C521 12.4385 521.659 13.335 522.468 14.3193C523.294 15.3037 524.138 16.2617 524.999 17.1934C525.86 18.125 526.607 18.916 527.24 19.5664V20.2783H521.914C520.965 19.7158 519.928 19.0479 518.803 18.2744C517.695 17.4834 516.676 16.6045 515.744 15.6377C514.795 16.6045 513.784 17.4746 512.712 18.248C511.64 19.0039 510.638 19.6807 509.706 20.2783H504.354V19.5664C505.021 18.8984 505.786 18.1074 506.647 17.1934C507.509 16.2617 508.344 15.3037 509.152 14.3193C509.961 13.335 510.611 12.4385 511.104 11.6299H520.49ZM515.691 64.3379C514.479 64.3379 513.441 64.0479 512.58 63.4678C511.736 62.9053 511.314 61.8857 511.314 60.4092C511.314 58.8975 511.736 57.8604 512.58 57.2979C513.441 56.7354 514.479 56.4541 515.691 56.4541C516.887 56.4541 517.915 56.7354 518.776 57.2979C519.638 57.8604 520.068 58.8975 520.068 60.4092C520.068 61.8857 519.638 62.9053 518.776 63.4678C517.915 64.0479 516.887 64.3379 515.691 64.3379ZM548.308 47.1201C549.187 47.1201 550.039 47.0322 550.865 46.8564C551.709 46.6807 552.544 46.4609 553.37 46.1973V52.1826C552.509 52.5693 551.437 52.8857 550.153 53.1318C548.888 53.3955 547.499 53.5273 545.987 53.5273C544.229 53.5273 542.647 53.2461 541.241 52.6836C539.853 52.1035 538.754 51.1104 537.945 49.7041C537.154 48.2803 536.759 46.3027 536.759 43.7715V29.5596H532.909V26.1582L537.339 23.4688L539.659 17.2461H544.801V23.5215H553.054V29.5596H544.801V43.7715C544.801 44.8965 545.117 45.7402 545.75 46.3027C546.4 46.8477 547.253 47.1201 548.308 47.1201ZM608.214 53H597.825L581.056 23.8379H580.818C580.889 25.0508 580.95 26.2725 581.003 27.5029C581.056 28.7334 581.108 29.9639 581.161 31.1943C581.214 32.4072 581.267 33.6289 581.319 34.8594V53H574.016V14.4512H584.325L601.068 43.3232H601.253C601.218 42.1279 601.174 40.9414 601.121 39.7637C601.068 38.5859 601.016 37.4082 600.963 36.2305C600.928 35.0527 600.893 33.875 600.857 32.6973V14.4512H608.214V53ZM629.387 22.915C633.342 22.915 636.374 23.7764 638.483 25.499C640.593 27.2217 641.647 29.8408 641.647 33.3564V53H636.031L634.476 48.9922H634.265C633.421 50.0469 632.56 50.9082 631.681 51.5762C630.802 52.2441 629.791 52.7363 628.648 53.0527C627.506 53.3691 626.117 53.5273 624.482 53.5273C622.742 53.5273 621.178 53.1934 619.789 52.5254C618.418 51.8574 617.337 50.8379 616.546 49.4668C615.755 48.0781 615.359 46.3203 615.359 44.1934C615.359 41.0645 616.458 38.7617 618.655 37.2852C620.853 35.791 624.148 34.9648 628.543 34.8066L633.658 34.6484V33.3564C633.658 31.8096 633.254 30.6758 632.445 29.9551C631.637 29.2344 630.512 28.874 629.07 28.874C627.646 28.874 626.249 29.0762 624.878 29.4805C623.507 29.8848 622.136 30.3945 620.765 31.0098L618.102 25.5781C619.666 24.752 621.415 24.1016 623.349 23.627C625.3 23.1523 627.312 22.915 629.387 22.915ZM633.658 39.3418L630.547 39.4473C627.945 39.5176 626.135 39.9834 625.115 40.8447C624.113 41.7061 623.612 42.8398 623.612 44.2461C623.612 45.4766 623.973 46.3555 624.693 46.8828C625.414 47.3926 626.354 47.6475 627.515 47.6475C629.237 47.6475 630.688 47.1377 631.865 46.1182C633.061 45.0986 633.658 43.6484 633.658 41.7676V39.3418ZM684.573 22.9678C687.913 22.9678 690.436 23.8291 692.141 25.5518C693.863 27.2568 694.725 29.999 694.725 33.7783V53H686.656V35.7822C686.656 33.6729 686.296 32.082 685.575 31.0098C684.854 29.9375 683.738 29.4014 682.227 29.4014C680.1 29.4014 678.588 30.166 677.691 31.6953C676.795 33.207 676.347 35.3779 676.347 38.208V53H668.305V35.7822C668.305 34.376 668.146 33.1982 667.83 32.249C667.514 31.2998 667.03 30.5879 666.38 30.1133C665.729 29.6387 664.895 29.4014 663.875 29.4014C662.381 29.4014 661.203 29.7793 660.342 30.5352C659.498 31.2734 658.892 32.3721 658.522 33.8311C658.171 35.2725 657.995 37.0391 657.995 39.1309V53H649.953V23.5215H656.097L657.178 27.292H657.626C658.224 26.2725 658.971 25.4463 659.867 24.8135C660.781 24.1807 661.783 23.7148 662.873 23.416C663.963 23.1172 665.07 22.9678 666.195 22.9678C668.357 22.9678 670.186 23.3193 671.68 24.0225C673.191 24.7256 674.352 25.8154 675.16 27.292H675.872C676.751 25.7803 677.99 24.6816 679.59 23.9961C681.207 23.3105 682.868 22.9678 684.573 22.9678Z" fill="#FAFAFA"/>
<path fill-rule="evenodd" clip-rule="evenodd" d="M559.071 99.7422C555.867 98.194 552.064 97.4199 547.659 97.4199C543.202 97.4199 539.291 98.2741 535.928 99.9824C532.565 101.664 529.949 104.267 528.08 107.79C526.212 111.287 525.278 115.758 525.278 121.203C525.278 126.568 526.305 130.959 528.361 134.376C530.443 137.793 533.285 140.315 536.889 141.943C540.492 143.572 544.576 144.386 549.141 144.386C553.091 144.386 556.361 144.119 558.95 143.585C561.54 143.051 563.929 142.21 566.117 141.062V129.812C563.608 130.986 561.166 131.854 558.79 132.414C556.441 132.975 553.852 133.255 551.023 133.255C547.82 133.255 545.391 132.494 543.736 130.973C542.107 129.451 541.227 127.503 541.093 125.127H569.08V118.16C569.08 113.542 568.213 109.699 566.478 106.629C564.743 103.559 562.274 101.264 559.071 99.7422ZM543.575 109.832C544.83 108.658 546.378 108.07 548.22 108.07C549.661 108.07 550.863 108.391 551.823 109.031C552.811 109.672 553.559 110.539 554.066 111.634C554.573 112.728 554.84 113.943 554.866 115.277H541.413C541.627 112.795 542.348 110.98 543.575 109.832ZM531.003 92.7354V93.8965H539.131C540.466 92.9889 541.854 91.9746 543.295 90.8535C544.763 89.7324 546.191 88.5312 547.579 87.25C548.994 88.5312 550.409 89.7324 551.823 90.8535C553.265 91.9746 554.666 92.9889 556.028 93.8965H564.196V92.7354C563.341 91.6943 562.407 90.5065 561.393 89.1719C560.378 87.8105 559.378 86.4225 558.39 85.0078C557.402 83.5664 556.495 82.2318 555.667 81.0039H539.531C538.677 82.2318 537.756 83.5664 536.769 85.0078C535.808 86.4225 534.834 87.8105 533.846 89.1719C532.858 90.5065 531.911 91.6943 531.003 92.7354ZM522.034 82.2852C523.876 83.6732 525.611 84.9411 527.24 86.0889H534.687V84.9678C533.619 83.9268 532.605 82.779 531.644 81.5244C530.71 80.2699 529.815 78.7617 528.961 77H517.55V77.8408C518.725 79.4157 520.219 80.8971 522.034 82.2852ZM805.84 130.893C806.881 127.956 807.401 124.593 807.401 120.803C807.401 115.785 806.427 111.54 804.478 108.07C802.556 104.6 799.9 101.958 796.51 100.143C793.121 98.3275 789.25 97.4199 784.899 97.4199C780.175 97.4199 776.104 98.3275 772.687 100.143C769.297 101.958 766.681 104.6 764.84 108.07C763.024 111.54 762.117 115.785 762.117 120.803C762.117 124.593 762.664 127.956 763.759 130.893C764.88 133.829 766.455 136.298 768.483 138.3C770.512 140.302 772.887 141.823 775.61 142.864C778.359 143.879 781.376 144.386 784.659 144.386C788.182 144.386 791.345 143.879 794.148 142.864C796.951 141.823 799.34 140.302 801.315 138.3C803.29 136.298 804.799 133.829 805.84 130.893ZM778.693 127.369C778.239 125.581 778.012 123.392 778.012 120.803C778.012 116.932 778.533 114.009 779.574 112.034C780.642 110.059 782.363 109.071 784.739 109.071C786.394 109.071 787.702 109.512 788.663 110.393C789.65 111.273 790.358 112.581 790.785 114.316C791.239 116.051 791.466 118.214 791.466 120.803C791.466 123.392 791.239 125.581 790.785 127.369C790.358 129.131 789.664 130.479 788.703 131.413C787.742 132.321 786.447 132.774 784.819 132.774C783.191 132.774 781.87 132.321 780.855 131.413C779.868 130.479 779.147 129.131 778.693 127.369ZM767.923 92.7354V93.8965H776.051C777.385 92.9889 778.773 91.9746 780.215 90.8535C781.683 89.7324 783.111 88.5312 784.499 87.25C785.914 88.5312 787.328 89.7324 788.743 90.8535C790.184 91.9746 791.586 92.9889 792.947 93.8965H801.115V92.7354C800.261 91.6943 799.327 90.5065 798.312 89.1719C797.298 87.8105 796.297 86.4225 795.309 85.0078C794.322 83.5664 793.414 82.2318 792.587 81.0039H776.451C775.597 82.2318 774.676 83.5664 773.688 85.0078C772.727 86.4225 771.753 87.8105 770.765 89.1719C769.778 90.5065 768.83 91.6943 767.923 92.7354ZM758.954 82.2852C760.796 83.6732 762.531 84.9411 764.159 86.0889H771.606V84.9678C770.539 83.9268 769.524 82.779 768.563 81.5244C767.629 80.2699 766.735 78.7617 765.881 77H754.469V77.8408C755.644 79.4157 757.139 80.8971 758.954 82.2852ZM854.569 101.384C851.606 98.7412 847.789 97.4199 843.117 97.4199C840.982 97.4199 839.047 97.6868 837.312 98.2207C835.577 98.7546 834.042 99.5286 832.707 100.543C831.373 101.557 830.225 102.785 829.264 104.227H828.663L826.541 98.2207H814.73V143.585H830.385V123.726C830.385 119.215 830.892 115.758 831.906 113.355C832.921 110.926 834.909 109.712 837.872 109.712C839.794 109.712 841.182 110.486 842.036 112.034C842.917 113.556 843.358 115.825 843.358 118.841V143.585H859.013V114.076C859.013 108.257 857.531 104.026 854.569 101.384ZM754.908 98.2207V143.585H743.096L741.135 137.939H740.214C739.279 139.461 738.092 140.702 736.65 141.663C735.235 142.597 733.661 143.278 731.926 143.705C730.19 144.159 728.389 144.386 726.52 144.386C723.557 144.386 720.875 143.812 718.472 142.664C716.097 141.516 714.202 139.715 712.787 137.259C711.399 134.803 710.705 131.64 710.705 127.77V98.2207H726.36V123.005C726.36 125.941 726.774 128.183 727.601 129.731C728.456 131.253 729.844 132.014 731.765 132.014C733.741 132.014 735.262 131.48 736.33 130.412C737.424 129.344 738.185 127.77 738.612 125.688C739.039 123.605 739.253 121.07 739.253 118.08V98.2207H754.908ZM663.297 160.041C666.794 162.203 671.759 163.284 678.192 163.284C686.707 163.284 693.313 161.749 698.011 158.68C702.736 155.61 705.098 151.312 705.098 145.787C705.098 141.49 703.83 138.273 701.294 136.138C698.758 134.002 694.941 132.935 689.843 132.935H682.316C681.355 132.935 680.34 132.868 679.273 132.734C678.232 132.601 677.337 132.361 676.59 132.014C675.869 131.64 675.509 131.146 675.509 130.532C675.509 130.239 675.549 129.932 675.629 129.611C675.736 129.264 675.883 128.917 676.07 128.57C677.057 128.784 678.392 128.891 680.073 128.891C686.88 128.891 691.992 127.543 695.408 124.847C698.852 122.151 700.573 118.36 700.573 113.476C700.573 112.461 700.467 111.5 700.253 110.593C700.04 109.685 699.719 108.844 699.292 108.07L705.498 105.788V98.2207H689.683C689.042 98.1139 688.135 98.0072 686.96 97.9004C685.786 97.7669 684.625 97.6602 683.477 97.5801C682.329 97.4733 681.475 97.4199 680.914 97.4199C676.75 97.4199 673.213 98.0339 670.304 99.2617C667.421 100.49 665.219 102.265 663.698 104.587C662.203 106.909 661.455 109.712 661.455 112.995C661.455 116.172 662.123 118.868 663.457 121.083C664.819 123.299 666.674 124.927 669.023 125.968C666.567 127.463 664.952 128.757 664.178 129.852C663.404 130.919 663.017 132.16 663.017 133.575C663.017 134.856 663.524 136.151 664.538 137.459C665.579 138.767 666.794 139.715 668.182 140.302C664.819 141.076 662.296 142.344 660.615 144.105C658.933 145.867 658.092 148.096 658.092 150.792C658.092 154.823 659.827 157.906 663.297 160.041ZM684.678 152.994C682.756 153.341 680.848 153.515 678.952 153.515C676.63 153.515 674.775 153.114 673.387 152.313C671.999 151.539 671.305 150.512 671.305 149.23C671.305 148.456 671.572 147.762 672.106 147.148C672.64 146.535 673.36 146.041 674.268 145.667C675.202 145.32 676.23 145.146 677.351 145.146H683.437C684.798 145.146 686.093 145.227 687.321 145.387C688.548 145.547 689.549 145.854 690.323 146.308C691.098 146.788 691.485 147.495 691.485 148.43C691.485 149.658 690.831 150.645 689.523 151.393C688.215 152.14 686.6 152.674 684.678 152.994ZM684.518 118.32C683.717 119.468 682.569 120.042 681.074 120.042C679.446 120.042 678.232 119.468 677.431 118.32C676.63 117.146 676.23 115.397 676.23 113.075C676.23 110.753 676.63 109.018 677.431 107.87C678.232 106.696 679.446 106.108 681.074 106.108C682.649 106.108 683.824 106.696 684.598 107.87C685.372 109.045 685.759 110.806 685.759 113.155C685.759 115.451 685.345 117.173 684.518 118.32ZM652.605 143.585H631.865L610.484 102.345H610.124C610.257 103.599 610.377 105.107 610.484 106.869C610.591 108.631 610.684 110.433 610.764 112.274C610.844 114.09 610.885 115.731 610.885 117.199V143.585H596.871V85.0479H617.531L638.832 125.728H639.072C638.992 124.446 638.912 122.965 638.832 121.283C638.752 119.575 638.672 117.853 638.592 116.118C638.538 114.383 638.511 112.848 638.511 111.514V85.0479H652.605V143.585ZM523.434 85.0479L504.256 143.585H485.637L466.539 85.0479H484.316L492.284 114.717C492.578 115.838 492.911 117.279 493.285 119.041C493.685 120.776 494.046 122.511 494.366 124.246C494.713 125.981 494.927 127.396 495.007 128.49C495.113 127.396 495.314 125.994 495.607 124.286C495.901 122.578 496.221 120.869 496.568 119.161C496.942 117.426 497.289 115.998 497.609 114.877L505.737 85.0479H523.434ZM414.645 90.1328V81.2842H398.99V143.585H414.645V123.646C414.645 120.656 414.872 118.133 415.326 116.078C415.78 113.996 416.554 112.421 417.648 111.354C418.743 110.259 420.237 109.712 422.133 109.712C423.974 109.712 425.336 110.486 426.217 112.034C427.097 113.556 427.538 115.825 427.538 118.841V143.585H443.273V114.076C443.273 110.152 442.552 106.976 441.111 104.547C439.67 102.091 437.734 100.289 435.305 99.1416C432.903 97.9938 430.207 97.4199 427.218 97.4199C425.429 97.4199 423.774 97.6335 422.253 98.0605C420.731 98.4609 419.343 99.1283 418.089 100.062C416.834 100.997 415.713 102.251 414.725 103.826H414.005C414.138 102.625 414.272 100.89 414.405 98.6211C414.565 96.3255 414.645 93.4961 414.645 90.1328ZM374.084 97.4199C378.755 97.4199 382.572 98.7412 385.535 101.384C388.498 104.026 389.979 108.257 389.979 114.076V143.585H374.324V118.841C374.324 115.825 373.884 113.556 373.003 112.034C372.149 110.486 370.76 109.712 368.839 109.712C365.876 109.712 363.887 110.926 362.873 113.355C361.858 115.758 361.351 119.215 361.351 123.726V143.585H345.696V98.2207H357.508L359.63 104.227H360.23C361.191 102.785 362.339 101.557 363.674 100.543C365.008 99.5286 366.543 98.7546 368.278 98.2207C370.013 97.6868 371.948 97.4199 374.084 97.4199ZM320.75 143.585H336.406V98.2207H320.75V143.585ZM331.881 84.8076C330.6 83.3395 329.492 81.9915 328.558 80.7637H311.341V81.6045C312.329 82.3786 313.57 83.3262 315.065 84.4473C316.533 85.5417 318.108 86.6895 319.789 87.8906C321.471 89.0651 323.086 90.1862 324.634 91.2539C326.182 92.3216 327.517 93.2025 328.638 93.8965H339.048V92.7354C338.167 91.721 337.073 90.5199 335.765 89.1318C334.484 87.7171 333.189 86.2757 331.881 84.8076ZM311.179 97.4199C312.034 97.4199 312.928 97.4867 313.862 97.6201C314.796 97.7269 315.49 97.8203 315.944 97.9004L314.543 112.675C314.036 112.541 313.382 112.435 312.581 112.354C311.78 112.248 310.659 112.194 309.218 112.194C308.23 112.194 307.176 112.288 306.054 112.475C304.933 112.661 303.866 113.062 302.851 113.676C301.864 114.263 301.05 115.171 300.409 116.398C299.768 117.6 299.448 119.228 299.448 121.283V143.585H283.793V98.2207H295.444L297.886 105.468H298.647C299.475 103.973 300.529 102.625 301.81 101.424C303.118 100.196 304.573 99.2217 306.175 98.501C307.803 97.7803 309.471 97.4199 311.179 97.4199ZM247.916 143.585H263.731V97.9805H277.985V85.0479H233.622V97.9805H247.916V143.585ZM179.686 81.2842V90.1328C179.686 93.4961 179.606 96.3255 179.446 98.6211C179.313 100.89 179.179 102.625 179.046 103.826H179.766C180.754 102.251 181.875 100.997 183.13 100.062C184.384 99.1283 185.772 98.4609 187.294 98.0605C188.815 97.6335 190.47 97.4199 192.259 97.4199C195.248 97.4199 197.944 97.9938 200.346 99.1416C202.775 100.289 204.711 102.091 206.152 104.547C207.594 106.976 208.314 110.152 208.314 114.076V143.585H192.579V118.841C192.579 115.825 192.138 113.556 191.258 112.034C190.377 110.486 189.015 109.712 187.174 109.712C185.278 109.712 183.784 110.259 182.689 111.354C181.595 112.421 180.821 113.996 180.367 116.078C179.913 118.133 179.686 120.656 179.686 123.646V143.585H164.031V81.2842H179.686ZM150.576 101.384C147.614 98.7412 143.796 97.4199 139.125 97.4199C136.99 97.4199 135.055 97.6868 133.32 98.2207C131.585 98.7546 130.05 99.5286 128.715 100.543C127.38 101.557 126.233 102.785 125.272 104.227H124.671L122.549 98.2207H110.738V143.585H126.393V123.726C126.393 119.215 126.9 115.758 127.914 113.355C128.929 110.926 130.917 109.712 133.88 109.712C135.802 109.712 137.19 110.486 138.044 112.034C138.925 113.556 139.365 115.825 139.365 118.841V143.585H155.021V114.076C155.021 108.257 153.539 104.026 150.576 101.384ZM83.429 97.4199C89.1679 97.4199 93.6523 98.848 96.8821 101.704C100.112 104.534 101.727 108.577 101.727 113.836V143.585H90.8762L87.8733 137.579H87.553C86.2717 139.181 84.9504 140.489 83.5891 141.503C82.2545 142.491 80.7196 143.211 78.9846 143.665C77.2496 144.146 75.1275 144.386 72.6184 144.386C70.0025 144.386 67.6536 143.852 65.5715 142.784C63.4895 141.716 61.8479 140.102 60.6467 137.939C59.4456 135.777 58.845 133.041 58.845 129.731C58.845 124.873 60.5266 121.27 63.8899 118.921C67.2532 116.572 72.1246 115.251 78.5042 114.957L86.0715 114.717V114.076C86.0715 112.048 85.5644 110.606 84.55 109.752C83.5624 108.898 82.2278 108.471 80.5461 108.471C78.7577 108.471 76.7558 108.791 74.5403 109.432C72.3515 110.046 70.1493 110.846 67.9338 111.834L63.4094 101.504C66.0253 100.169 68.9882 99.1549 72.2981 98.4609C75.608 97.7669 79.3183 97.4199 83.429 97.4199ZM86.1516 123.325L82.5481 123.485C79.6653 123.592 77.6366 124.099 76.4622 125.007C75.3144 125.888 74.7405 127.156 74.7405 128.811C74.7405 130.359 75.1542 131.507 75.9817 132.254C76.8092 132.975 77.9036 133.335 79.2649 133.335C81.1601 133.335 82.775 132.734 84.1096 131.533C85.4709 130.332 86.1516 128.771 86.1516 126.849V123.325ZM81.387 80.7637C82.3212 81.9915 83.429 83.3395 84.7102 84.8076C86.0182 86.2757 87.3127 87.7171 88.594 89.1318C89.9019 90.5199 90.9963 91.721 91.8772 92.7354V93.8965H81.467C80.3459 93.2025 79.0113 92.3216 77.4631 91.2539C75.915 90.1862 74.3 89.0651 72.6184 87.8906C70.9368 86.6895 69.3485 85.5417 67.8538 84.4473C66.3857 83.3262 65.1578 82.3786 64.1702 81.6045V80.7637H81.387ZM35.2605 143.585H51.156V85.0479H35.2605V106.749H16.8826V85.0479H0.987061V143.585H16.8826V119.722H35.2605V143.585Z" fill="#FAFAFA"/>
</svg>
