<svg width="56" height="56" viewBox="0 0 56 56" fill="none" xmlns="http://www.w3.org/2000/svg">
<g clip-path="url(#clip0_449_1384)">
<path d="M28.0003 32.6667C18.996 32.6667 11.667 25.34 11.667 16.3333C11.667 7.32667 18.996 0 28.0003 0C37.0047 0 44.3337 7.32667 44.3337 16.3333C44.3337 25.34 37.0047 32.6667 28.0003 32.6667ZM28.0003 2.33333C20.2793 2.33333 14.0003 8.61467 14.0003 16.3333C14.0003 24.052 20.2793 30.3333 28.0003 30.3333C35.7213 30.3333 42.0003 24.0543 42.0003 16.3333C42.0003 8.61233 35.7213 2.33333 28.0003 2.33333Z" fill="#FBB040"/>
<path d="M33.0472 25.6666C32.8535 25.6666 32.6599 25.6176 32.4825 25.5219L28.0002 23.0439L23.5179 25.5219C23.1259 25.7389 22.6452 25.7109 22.2812 25.4542C21.9172 25.1976 21.7305 24.7542 21.8029 24.3132L22.6709 18.9839L19.0005 15.2202C18.6949 14.9076 18.5899 14.4502 18.7275 14.0349C18.8675 13.6196 19.2269 13.3186 19.6585 13.2532L24.6845 12.4832L26.9455 7.67191C27.3282 6.85057 28.6722 6.85057 29.0549 7.67191L31.3159 12.4832L36.3419 13.2532C36.7759 13.3186 37.1352 13.6219 37.2729 14.0349C37.4105 14.4502 37.3055 14.9076 36.9999 15.2202L33.3295 18.9839L34.1975 24.3132C34.2699 24.7542 34.0832 25.1976 33.7192 25.4542C33.5185 25.5966 33.2852 25.6666 33.0472 25.6666ZM28.0002 20.5449C28.1939 20.5449 28.3899 20.5939 28.5649 20.6896L31.5095 22.3182L30.9332 18.7786C30.8749 18.4122 30.9892 18.0412 31.2505 17.7752L33.7472 15.2156L30.3499 14.6952C29.9649 14.6392 29.6335 14.3919 29.4702 14.0396L28.0002 10.9129L26.5302 14.0396C26.3669 14.3919 26.0355 14.6392 25.6505 14.6976L22.2532 15.2156L24.7499 17.7752C25.0089 18.0389 25.1255 18.4122 25.0672 18.7786L24.4909 22.3182L27.4355 20.6896C27.6105 20.5939 27.8065 20.5449 28.0002 20.5449Z" fill="#FBB040"/>
<path d="M17.9079 56.0001C17.8939 56.0001 17.8822 56.0001 17.8682 56.0001C17.4366 55.9861 17.0492 55.7364 16.8602 55.3491L13.4956 48.5124L5.87258 48.9977C5.43858 49.0094 5.03491 48.8134 4.80624 48.4494C4.57758 48.0854 4.57291 47.6234 4.78991 47.2501L16.5499 26.8661C16.8696 26.3084 17.5812 26.1171 18.1436 26.4391C18.7012 26.7611 18.8926 27.4751 18.5706 28.0327L7.90024 46.5314L14.1256 46.1347C14.5922 46.1114 15.0402 46.3611 15.2456 46.7834L17.9896 52.3601L26.9076 36.9367C27.2342 36.3791 27.9482 36.1924 28.5012 36.5097C29.0589 36.8341 29.2502 37.5457 28.9282 38.1057L18.9182 55.4191C18.7106 55.7784 18.3232 56.0001 17.9079 56.0001Z" fill="#FBB040"/>
<path d="M37.9287 56.0001C37.5134 56.0001 37.1261 55.7784 36.9184 55.4168L23.2847 31.7031C22.9651 31.1431 23.1634 30.4314 23.7234 30.1118C24.2741 29.7968 24.9951 29.9904 25.3124 30.5504L28.9337 36.9414L37.8494 52.3624L40.6191 46.7741C40.8291 46.3541 41.2841 46.1044 41.7391 46.1278L47.9644 46.5244L37.3267 28.0841C37.0047 27.5264 37.1961 26.8124 37.7561 26.4904C38.3137 26.1661 39.0277 26.3574 39.3521 26.9174L51.0747 47.2454C51.2894 47.6188 51.2824 48.0784 51.0537 48.4448C50.8251 48.8111 50.4214 49.0094 49.9874 48.9931L42.3621 48.5054L38.9741 55.3468C38.7827 55.7318 38.3954 55.9791 37.9637 55.9931C37.9544 56.0001 37.9404 56.0001 37.9287 56.0001Z" fill="#FBB040"/>
</g>
<defs>
<clipPath id="clip0_449_1384">
<rect width="56" height="56" fill="white"/>
</clipPath>
</defs>
</svg>
